# xmcd CD database file
#
# Track frame offsets:
#	150
#	17029
#	33925
#	55024
#	75188
#	91322
#	113593
#	136626
#	155903
#	172468
#	194063
#	215246
#
# Disc length: 3231 seconds
#
# Revision: 0
# Processed by: cddbd v1.4PL0 Copyright (c) Steve Scherf et al.
# Submitted via: CDex 1.40PlusFr
#
DISCID=a00c9d0c
DTITLE=DIXIE CHICKS - HOME
DYEAR=2002
DGENRE=Country
TTITLE0=Dixie Chicks - Home - 01 - Long Time Gone
TTITLE1=Dixie Chicks - Home - 02 - Landslide(1)
TTITLE2=Dixie Chicks - Home - 03-Traveling Soldier 
TTITLE3=Dixie Chicks - Home - 04 - Truth No 2
TTITLE4=Dixie Chicks - Home - 05 - White Trash Wedding
TTITLE5=Dixie Chicks - Home - 06 - A Home
TTITLE6=Dixie Chicks - Home - 07 - More Love
TTITLE7=Dixie Chicks - Home - 08 - I Believe In Love
TTITLE8=Dixie Chicks - Home - 09 - Tortured, Tangled Hearts
TTITLE9=Dixie Chicks - Home - 10 - Lil' Jack Slade
TTITLE10=Dixie Chicks - Home - 11 - Godspeed (Sweet Dreams)
TTITLE11=Dixie Chicks - Home - 12 - Top Of The World
EXTD=YEAR: 2002 ID3G: 2
EXTT0=
EXTT1=
EXTT2=
EXTT3=
EXTT4=
EXTT5=
EXTT6=
EXTT7=
EXTT8=
EXTT9=
EXTT10=
EXTT11=
PLAYORDER=
